<?xml version="1.0" standalone="no"?>
<!DOCTYPE svg PUBLIC "-//W3C//DTD SVG 20010904//EN"
 "http://www.w3.org/TR/2001/REC-SVG-20010904/DTD/svg10.dtd">
<svg version="1.0" xmlns="http://www.w3.org/2000/svg"
 viewBox="0 0 5000 3124" preserveAspectRatio="xMidYMid meet">

<g transform="translate(0.000000,3124.000000) scale(0.100000,-0.100000)"
fill="#ffffff" stroke="none">
<path d="M5571 21044 c-961 -77 -1834 -374 -2614 -891 -1342 -888 -2218 -2285
-2426 -3868 -59 -443 -60 -920 -5 -1385 83 -697 320 -1402 682 -2025 152 -261
405 -615 573 -800 20 -22 72 -81 117 -131 97 -110 347 -348 492 -470 890 -748
1998 -1194 3185 -1281 218 -16 727 -9 920 12 358 40 628 91 930 175 1615 450
2947 1650 3565 3210 561 1419 496 3036 -179 4431 -629 1300 -1781 2317 -3126
2760 -403 133 -840 224 -1220 254 -38 3 -92 8 -120 12 -94 11 -620 9 -774 -3z
m834 -149 c1160 -100 2203 -545 3084 -1318 303 -267 651 -657 845 -947 31 -47
60 -90 64 -95 4 -6 16 -27 26 -48 11 -20 23 -37 29 -37 5 0 7 -6 4 -14 -3 -8
-3 -17 1 -20 10 -11 11 -37 1 -30 -5 3 -7 9 -4 14 3 5 1 11 -5 15 -6 4 -7 11
-4 17 5 7 2 8 -5 4 -7 -5 -10 -15 -7 -23 3 -8 2 -11 -3 -8 -5 3 -12 1 -16 -5
-4 -6 -11 -7 -17 -4 -7 5 -9 1 -5 -9 3 -9 -1 -21 -11 -29 -15 -11 -15 -11 -5
2 8 10 9 21 3 30 -13 20 -13 57 0 65 5 3 7 -7 5 -25 -3 -25 -1 -29 9 -21 7 6
16 8 20 4 4 -4 4 1 0 11 -5 13 -4 17 4 12 6 -3 14 -1 18 5 4 8 3 9 -4 5 -8 -5
-10 -1 -6 11 6 15 4 15 -10 -2 -16 -20 -16 -20 -12 5 5 34 -11 73 -26 64 -7
-5 -9 -2 -5 9 7 19 -18 44 -28 27 -4 -6 -3 -9 2 -8 9 3 13 -5 13 -24 0 -9 -3
-9 -9 1 -7 12 -13 12 -24 3 -7 -7 -16 -9 -20 -6 -3 3 -3 -5 0 -18 4 -18 3 -20
-6 -8 -8 11 -11 12 -11 2 0 -7 -4 -11 -9 -7 -6 3 -14 -3 -20 -12 -7 -13 -10
-14 -11 -4 0 8 -3 11 -7 8 -3 -4 13 -33 35 -66 23 -33 42 -61 42 -64 0 -15 89
-135 95 -129 5 4 5 1 1 -6 -4 -7 2 -28 14 -47 56 -91 213 -395 255 -495 13
-30 40 -93 60 -140 181 -418 305 -899 372 -1435 22 -179 25 -833 5 -1020 -60
-542 -175 -1011 -364 -1475 -49 -123 -163 -375 -178 -395 -4 -5 -27 -48 -51
-95 -24 -47 -56 -107 -72 -135 -17 -27 -41 -70 -55 -95 -34 -62 -162 -257
-236 -360 -614 -862 -1497 -1504 -2545 -1850 -169 -56 -471 -137 -596 -160
-403 -74 -626 -99 -955 -104 -715 -11 -1377 104 -1990 346 -248 98 -609 280
-790 397 -209 136 -264 169 -273 164 -6 -3 -7 -1 -4 4 4 6 -4 18 -18 27 -14 9
-25 14 -25 11 0 -3 -14 9 -30 27 -28 31 -31 32 -44 16 -7 -10 -17 -14 -22 -11
-5 4 -3 1 3 -7 17 -19 17 -35 0 -22 -10 9 -13 4 -15 -21 -2 -17 -8 -36 -13
-42 -8 -7 -9 -3 -5 15 l7 25 -15 -25 c-17 -30 -10 -46 12 -28 14 11 15 10 8
-7 -4 -11 -4 -16 0 -12 4 4 14 -2 21 -13 8 -11 18 -18 23 -15 4 3 11 -2 14
-11 3 -8 10 -12 16 -9 5 3 10 0 10 -7 0 -15 54 -51 63 -42 3 3 11 -4 17 -16 6
-12 17 -19 24 -17 7 3 13 -1 13 -8 0 -18 -8 -14 -157 91 -1140 800 -1916 2002
-2176 3369 -98 517 -116 1126 -48 1660 150 1177 693 2270 1545 3112 427 421
848 722 1382 988 626 312 1253 486 1962 544 172 14 656 12 840 -4z m3958
-2378 c4 3 7 -2 7 -12 0 -14 -3 -15 -15 -5 -15 12 -16 11 -19 -12 0 -7 -7 -13
-15 -13 -7 0 -18 -10 -22 -23 -6 -16 -5 -21 3 -16 7 5 8 3 3 -6 -6 -9 -4 -11
5 -5 7 5 11 4 7 -1 -3 -5 1 -20 9 -34 8 -15 13 -19 14 -10 0 13 1 13 11 0 8
-12 9 -10 4 7 -11 39 -13 93 -4 99 5 3 9 -3 10 -13 0 -10 6 -3 14 17 7 19 14
28 15 20 1 -8 3 -23 5 -33 2 -9 0 -15 -5 -12 -17 10 -32 -25 -26 -59 4 -21 2
-37 -4 -41 -8 -5 -5 -14 7 -28 10 -12 4 -9 -14 7 -45 41 -93 120 -82 137 6 10
9 7 10 -11 2 -24 2 -24 6 -2 2 12 9 20 14 17 5 -4 14 6 19 20 8 21 13 25 24
16 7 -6 16 -8 19 -4z m-26 -91 c2 -28 0 -36 -7 -26 -5 8 -7 17 -4 21 2 4 0 10
-6 14 -14 9 -12 32 3 32 7 0 13 -16 14 -41z m104 -59 c-8 -8 -4 -18 12 -36
l22 -26 -27 24 c-19 17 -25 28 -18 36 5 7 6 16 2 20 -4 5 -1 5 6 0 10 -5 11
-10 3 -18z m46 -2 c0 -8 -4 -12 -9 -9 -5 3 -6 10 -3 15 9 13 12 11 12 -6z
m-82 -22 c-1 -10 3 -25 9 -33 9 -13 9 -13 -6 -2 -13 10 -16 26 -9 50 4 11 9
-2 6 -15z m66 0 c13 -16 12 -17 -3 -4 -17 13 -22 21 -14 21 2 0 10 -8 17 -17z
m-32 -27 c9 -11 9 -16 -1 -22 -7 -4 -10 -4 -6 1 4 4 3 14 -3 22 -6 7 -9 13 -6
13 2 0 10 -6 16 -14z m28 -23 c-4 -3 -1 -13 6 -22 11 -14 10 -14 -5 -2 -16 12
-16 31 -1 31 4 0 3 -3 0 -7z m-46 -27 c-6 -7 -7 -17 -3 -21 4 -5 1 -5 -6 -1
-9 6 -10 11 -3 20 6 7 7 17 3 21 -4 5 -1 5 6 1 9 -6 10 -11 3 -20z m89 18 c0
-8 -19 -13 -24 -6 -3 5 1 9 9 9 8 0 15 -2 15 -3z m-7570 -6901 c12 -16 25 -28
28 -28 38 -1 42 -53 8 -92 l-25 -28 22 -25 c18 -21 17 -21 -8 3 -27 24 -28 29
-17 48 8 12 15 30 17 41 3 12 7 23 11 27 4 3 4 -10 1 -29 -5 -28 -4 -31 4 -17
6 10 8 30 4 45 l-7 27 -14 -25 c-14 -24 -15 -24 -11 -3 3 13 0 26 -5 30 -7 4
-8 1 -3 -7 6 -9 4 -11 -4 -6 -7 5 -10 15 -7 23 4 9 2 11 -6 7 -7 -5 -8 -2 -3
7 5 8 4 11 -1 6 -5 -5 -9 -16 -9 -25 0 -9 -7 -17 -15 -17 -17 0 -21 -52 -6
-73 5 -7 6 -15 3 -18 -3 -3 -12 7 -19 23 -15 29 -10 88 7 88 10 0 11 4 14 33
2 20 18 14 41 -15z m3 -61 c12 -25 12 -32 -3 -60 l-17 -31 -13 27 c-16 34 -23
85 -11 77 5 -3 12 -1 16 5 9 15 12 13 28 -18z m113 -48 c-1 -8 -6 -17 -12 -21
-5 -4 -6 -4 -2 1 4 5 3 14 -2 21 -7 8 -5 12 4 12 8 0 13 -6 12 -13z m-29 -19
c0 -8 -4 -12 -9 -9 -5 3 -6 10 -3 15 9 13 12 11 12 -6z m-35 -7 c-9 -9 -9 -15
1 -27 11 -14 10 -14 -6 -2 -13 10 -15 17 -6 27 6 8 14 14 17 14 3 0 1 -5 -6
-12z m85 5 c-4 -3 -2 -12 4 -19 7 -8 6 -14 -2 -20 -7 -4 -9 -3 -5 4 3 6 2 13
-4 17 -10 6 -5 25 7 25 4 0 3 -3 0 -7z m-21 -38 c1 -8 -1 -17 -5 -19 -4 -3 -7
6 -7 19 0 25 8 25 12 0z m-29 0 c0 -8 -4 -12 -9 -9 -5 3 -6 10 -3 15 9 13 12
11 12 -6z m49 -30 c-1 -8 -5 -17 -8 -21 -5 -4 -4 16 1 34 3 9 9 -1 7 -13z
m-35 -12 c13 -16 12 -17 -3 -4 -17 13 -22 21 -14 21 2 0 10 -8 17 -17z"/>
<path d="M5744 20449 c-466 -20 -914 -107 -1374 -264 -557 -191 -1103 -504
-1570 -901 -150 -127 -440 -418 -561 -564 -491 -588 -831 -1253 -1009 -1972
-142 -576 -178 -1200 -104 -1783 81 -642 288 -1256 606 -1802 60 -102 60 -102
84 -86 13 8 21 20 18 25 -4 6 -11 4 -16 -6 -9 -16 -11 -16 -29 0 -10 9 -16 20
-14 24 3 4 -2 13 -10 20 -12 10 -12 15 1 35 20 31 24 57 11 73 -6 7 -6 12 -1
11 5 -1 12 0 17 1 4 1 13 3 20 4 6 1 11 7 10 13 -2 7 6 10 18 8 16 -3 19 0 14
13 -5 13 -4 14 6 5 9 -9 9 -16 1 -25 -6 -8 -7 -19 -3 -27 6 -9 11 -10 15 -2 4
6 5 11 1 11 -3 0 -1 8 4 18 7 13 7 22 -1 30 -10 10 -6 10 31 3 2 -1 -2 -8 -9
-16 -7 -9 -11 -18 -8 -20 3 -3 11 2 18 11 12 13 12 19 1 37 -8 12 -10 19 -6
14 5 -4 17 1 27 10 11 10 19 13 18 8 -5 -21 0 -36 10 -30 5 3 7 13 4 23 -5 14
-4 15 5 2 9 -13 11 -13 12 0 1 8 1 18 1 21 -1 3 6 6 14 6 7 0 12 -3 9 -5 -3
-3 2 -14 12 -24 9 -10 13 -18 8 -18 -4 0 -1 -10 7 -22 8 -13 15 -36 15 -53 1
-24 0 -26 -6 -10 -5 11 -6 26 -3 34 4 9 1 12 -7 7 -6 -4 -11 -15 -9 -24 1 -10
-1 -23 -5 -29 -5 -8 -3 -13 3 -13 6 0 8 -6 5 -12 -4 -7 5 -1 19 15 14 15 29
28 33 28 11 1 4 21 -16 44 -10 11 -57 100 -105 198 -298 608 -442 1099 -506
1732 -14 141 -5 717 14 870 84 676 277 1240 626 1825 277 466 737 969 1190
1301 594 437 1303 729 2018 834 257 37 380 44 727 40 295 -3 365 -7 530 -29
313 -42 597 -109 879 -206 230 -79 638 -264 828 -375 31 -18 59 -31 62 -28 3
4 6 1 6 -6 0 -8 6 -11 16 -7 8 3 13 2 10 -2 -5 -8 64 -50 72 -44 2 2 10 -5 18
-15 7 -10 14 -13 14 -7 0 6 -3 14 -7 18 -5 4 -8 11 -8 14 -2 23 -18 51 -26 46
-6 -4 -6 -11 1 -20 7 -7 10 -19 7 -26 -3 -7 -6 -4 -6 7 -1 13 -4 16 -9 8 -6
-9 -11 -7 -20 7 -7 11 -9 19 -5 18 5 -2 9 2 11 7 2 6 10 18 19 27 8 9 12 23 8
30 -3 7 1 4 9 -6 9 -11 16 -26 16 -34 0 -7 4 -10 10 -7 6 4 5 16 -4 33 -15 30
-4 68 16 56 8 -5 9 -1 5 12 -5 14 -2 12 13 -6 24 -30 27 -14 3 19 -9 14 -11
21 -5 17 8 -4 12 0 13 11 0 14 2 14 9 -4 12 -31 17 -29 17 7 0 16 -4 27 -9 24
-4 -3 -5 3 -1 12 4 11 8 13 11 6 2 -7 8 -9 13 -6 6 3 5 11 -2 20 -6 8 -10 14
-8 15 37 7 40 7 29 -6 -6 -7 -7 -16 -2 -18 4 -3 13 3 20 13 10 17 4 24 -61 63
-621 380 -1291 611 -2008 692 -112 12 -561 38 -579 33 -3 0 -86 -5 -186 -9z
m-3670 -7185 c3 -8 2 -12 -4 -9 -6 3 -10 10 -10 16 0 14 7 11 14 -7z m-308
-41 c2 -9 -2 -25 -7 -35 -8 -15 -14 -17 -24 -8 -17 14 -13 45 6 45 8 1 13 7
11 15 -2 8 0 11 4 7 4 -4 9 -15 10 -24z"/>
<path d="M1735 13201 c2 -9 4 -18 4 -21 2 -6 21 23 21 31 0 3 -6 6 -14 6 -7 0
-12 -7 -11 -16z"/>
<path d="M8580 19660 c-6 -11 -15 -18 -20 -15 -13 8 -28 -26 -25 -55 2 -14 4
-34 4 -45 1 -15 3 -17 10 -6 5 7 5 28 1 47 -5 23 -4 32 3 27 7 -4 8 1 4 13 -5
14 -2 12 12 -6 l20 -25 -2 30 c-2 23 2 30 17 30 11 0 20 -8 22 -19 4 -31 23
-43 20 -12 -2 24 -29 55 -48 56 -4 0 -12 -9 -18 -20z"/>
<path d="M8594 19624 c4 -13 2 -26 -4 -29 -5 -3 -10 -12 -10 -18 0 -7 10 -1
21 13 11 14 18 20 15 14 -5 -10 14 -78 25 -89 3 -3 5 5 5 18 -1 12 4 21 12 20
6 -2 11 0 10 5 -4 11 28 53 35 45 4 -3 2 -12 -4 -19 -7 -8 -7 -14 1 -19 6 -4
9 -1 8 6 -2 6 3 14 11 17 9 3 11 0 6 -8 -5 -8 -4 -11 2 -7 11 7 75 -37 68 -46
-3 -4 -2 -5 2 -2 3 3 17 -2 30 -10 13 -9 23 -14 23 -11 0 6 -170 126 -188 133
-11 5 -13 1 -8 -15 4 -11 2 -23 -3 -26 -10 -7 -43 33 -36 44 2 4 -3 7 -11 7
-11 0 -14 -7 -10 -23z m68 -46 l-20 -20 -12 23 c-10 21 -9 22 3 7 15 -19 36
-7 38 22 0 11 2 12 6 1 3 -7 -4 -22 -15 -33z"/>
<path d="M8562 19578 c1 -19 -1 -38 -4 -44 -4 -5 -3 -16 3 -24 7 -13 9 -13 10
0 5 55 4 92 -3 96 -5 3 -8 -10 -6 -28z"/>
<path d="M8509 19572 c9 -17 9 -27 1 -37 -7 -9 -8 -15 0 -20 5 -3 10 0 10 7 1
7 8 0 16 -15 9 -16 18 -26 21 -23 3 3 -2 17 -11 30 -9 14 -16 32 -16 39 0 8
-7 21 -17 28 -15 13 -15 12 -4 -9z"/>
<path d="M8591 19562 c-7 -12 -9 -22 -6 -22 3 0 -2 -16 -10 -36 -8 -20 -13
-39 -11 -43 3 -4 0 -13 -6 -21 -8 -13 -9 -12 -5 1 3 9 -3 29 -14 45 -10 16
-19 25 -19 20 0 -5 -7 -3 -15 4 -8 6 -13 17 -12 23 3 14 -26 16 -35 3 -3 -5 0
-22 8 -37 8 -16 10 -30 5 -33 -5 -4 -7 -15 -4 -26 3 -12 8 -18 11 -15 10 10 9
60 -2 77 -7 13 -7 21 1 29 9 9 11 7 6 -10 -4 -15 -1 -21 8 -19 9 2 13 -4 11
-16 -3 -17 -1 -18 11 -7 10 8 17 9 22 1 3 -5 4 -10 1 -10 -3 0 -2 -10 3 -22 6
-17 3 -32 -15 -58 -13 -19 -24 -29 -24 -22 0 7 -5 10 -11 6 -8 -5 -8 -1 0 14
7 14 8 23 1 27 -5 3 -10 -2 -11 -12 0 -12 -4 -8 -11 11 -6 16 -16 39 -23 52
-11 23 -13 23 -26 7 -8 -10 -9 -14 -2 -10 11 7 41 -35 44 -60 3 -20 14 -39 28
-50 13 -9 18 -8 24 3 5 8 13 12 18 8 6 -3 5 -12 -3 -22 -12 -15 -11 -16 5 -3
12 10 15 17 7 25 -17 17 -11 29 8 15 14 -11 15 -11 5 1 -22 24 -14 34 10 14
12 -10 19 -15 15 -10 -4 5 -3 15 3 22 7 8 7 14 -1 19 -5 3 -10 11 -10 17 0 6
7 5 18 -3 14 -11 15 -11 5 1 -20 22 -15 35 5 17 15 -14 19 -14 19 -3 0 8 -5
14 -10 13 -5 -1 -11 3 -14 10 -5 13 14 12 37 -2 12 -7 13 -6 5 6 -6 8 -12 28
-14 44 -5 48 -16 62 -30 37z m14 -19 c-1 -10 2 -24 8 -30 5 -7 8 -13 6 -14
-34 -7 -38 -6 -32 4 4 7 8 20 9 30 2 23 3 27 8 27 2 0 3 -8 1 -17z m-31 -134
c-3 -5 -10 -7 -15 -3 -5 3 -7 10 -3 15 3 5 10 7 15 3 5 -3 7 -10 3 -15z"/>
<path d="M8715 19551 c-3 -5 -2 -12 3 -15 5 -3 9 1 9 9 0 17 -3 19 -12 6z"/>
<path d="M8753 19542 c10 -10 14 -22 10 -27 -5 -4 -2 -5 5 -1 11 6 10 12 -4
27 -9 10 -19 19 -22 19 -3 0 2 -8 11 -18z"/>
<path d="M8656 19528 c3 -5 10 -6 15 -3 13 9 11 12 -6 12 -8 0 -12 -4 -9 -9z"/>
<path d="M8690 19536 c0 -2 8 -10 18 -17 15 -13 16 -12 3 4 -13 16 -21 21 -21
13z"/>
<path d="M8735 19521 c-3 -5 -2 -12 3 -15 5 -3 9 1 9 9 0 17 -3 19 -12 6z"/>
<path d="M8680 19516 c0 -2 8 -10 18 -17 15 -13 16 -12 3 4 -13 16 -21 21 -21
13z"/>
<path d="M8669 19497 c6 -8 7 -18 3 -22 -4 -5 -1 -5 6 -1 10 6 10 11 1 22 -6
8 -14 14 -16 14 -3 0 0 -6 6 -13z"/>
<path d="M8518 19474 c-3 -3 -4 -20 -2 -37 3 -25 2 -27 -5 -12 -5 11 -7 23 -5
27 3 4 0 10 -6 13 -12 7 -9 -39 2 -51 4 -3 4 -13 1 -22 -3 -10 3 -7 15 7 15
18 18 31 12 47 -5 12 -6 25 -3 28 4 3 4 6 1 6 -2 0 -7 -3 -10 -6z"/>
<path d="M8696 19471 c-3 -5 2 -15 12 -22 15 -12 16 -12 5 2 -7 9 -10 19 -6
22 3 4 4 7 0 7 -3 0 -8 -4 -11 -9z"/>
<path d="M8727 19469 c7 -9 11 -18 8 -21 -3 -3 3 -11 12 -19 16 -12 17 -12 6
2 -7 9 -11 18 -8 21 3 3 -3 11 -12 19 -16 12 -17 12 -6 -2z"/>
<path d="M8634 19436 c1 -13 7 -30 14 -38 6 -8 8 -19 4 -23 -4 -5 -1 -5 6 -1
11 7 11 11 -1 24 -8 10 -13 25 -12 34 2 10 0 20 -4 23 -4 2 -7 -6 -7 -19z"/>
<path d="M8680 19446 c0 -2 8 -10 18 -17 15 -13 16 -12 3 4 -13 16 -21 21 -21
13z"/>
<path d="M8663 19425 c0 -8 4 -12 9 -9 5 3 6 10 3 15 -9 13 -12 11 -12 -6z"/>
<path d="M8723 19415 c0 -8 4 -12 9 -9 5 3 6 10 3 15 -9 13 -12 11 -12 -6z"/>
<path d="M8684 19394 c1 -8 4 -15 7 -16 2 -2 3 -1 2 1 -2 2 2 9 7 16 7 8 5 12
-4 12 -8 0 -13 -6 -12 -13z"/>
<path d="M8595 19392 c3 -3 0 -11 -6 -19 -6 -7 -8 -13 -4 -13 4 0 1 -8 -6 -17
-13 -16 -12 -17 4 -4 9 8 15 16 12 19 -3 3 2 13 10 22 13 15 13 17 0 17 -8 0
-13 -3 -10 -5z"/>
<path d="M8625 19381 c-3 -5 -2 -12 3 -15 5 -3 9 1 9 9 0 17 -3 19 -12 6z"/>
<path d="M8679 19357 c6 -8 7 -18 3 -22 -4 -5 -1 -5 6 -1 10 6 10 11 1 22 -6
8 -14 14 -16 14 -3 0 0 -6 6 -13z"/>
<path d="M8653 19353 c4 -3 1 -13 -6 -22 -11 -14 -10 -14 5 -2 16 12 16 31 1
31 -4 0 -3 -3 0 -7z"/>
<path d="M8545 19331 c-3 -5 -2 -12 3 -15 5 -3 9 1 9 9 0 17 -3 19 -12 6z"/>
<path d="M8595 19331 c-3 -5 -2 -12 3 -15 5 -3 9 1 9 9 0 17 -3 19 -12 6z"/>
<path d="M8570 19316 c0 -2 8 -10 18 -17 15 -13 16 -12 3 4 -13 16 -21 21 -21
13z"/>
<path d="M4045 19152 c-55 -20 -237 -136 -385 -245 -505 -373 -928 -867 -1216
-1422 -493 -950 -597 -2089 -283 -3100 279 -896 878 -1662 1731 -2211 150 -96
201 -113 289 -95 43 9 64 20 91 49 67 70 63 4 68 957 l5 870 1583 3 1582 2 0
-852 c0 -556 4 -866 10 -890 25 -87 99 -135 228 -145 102 -7 123 0 281 102
941 605 1602 1615 1785 2730 42 257 51 365 51 675 0 299 -7 397 -46 650 -108
700 -404 1403 -823 1950 -285 373 -688 742 -1017 932 -93 54 -146 65 -227 49
-102 -20 -193 -97 -224 -189 -9 -28 -13 -233 -16 -865 l-3 -827 -1582 2 -1582
3 -5 860 -5 860 -26 56 c-33 70 -77 99 -157 105 -40 3 -72 -1 -107 -14z m153
-146 c38 -20 61 -47 68 -82 l6 -30 -124 -48 -123 -47 -1 -772 c0 -425 -2 -808
-5 -852 -4 -79 13 -175 32 -175 5 0 9 -5 9 -12 0 -23 51 -85 95 -117 25 -18
45 -31 46 -29 6 26 5 39 -3 45 -6 3 -8 1 -4 -5 3 -6 2 -13 -3 -16 -5 -3 -11 3
-14 14 -3 11 0 18 5 17 6 -1 12 7 14 17 1 11 10 24 19 29 15 8 15 11 -2 29
-18 21 -18 21 7 8 21 -10 23 -10 13 1 -15 15 -17 33 -4 25 5 -4 7 3 4 14 -3
11 0 20 6 20 6 0 8 7 4 17 -5 12 -3 14 7 8 8 -5 11 -4 7 2 -4 6 0 31 9 56 l16
46 26 -17 c25 -16 129 -17 1669 -12 1559 5 1643 6 1660 23 17 17 18 70 23 890
5 820 6 875 23 900 26 40 76 67 124 67 35 0 60 -12 164 -81 433 -286 846 -682
1089 -1044 30 -44 60 -86 67 -93 7 -7 13 -22 13 -33 0 -10 4 -19 9 -19 5 0 18
-15 29 -34 18 -31 19 -36 5 -55 -8 -12 -18 -19 -22 -16 -5 2 -16 -4 -26 -15
-10 -11 -22 -17 -26 -14 -5 3 -9 -1 -9 -8 0 -9 -3 -9 -10 2 -5 8 -10 12 -11 8
-1 -5 -3 -12 -4 -18 -1 -5 -3 -13 -4 -16 0 -4 -8 -1 -17 7 -13 11 -15 11 -12
-2 1 -7 -2 -16 -7 -17 -6 -2 -15 -8 -21 -13 -14 -12 -49 25 -38 42 4 8 3 10
-4 5 -8 -4 -10 -2 -6 7 3 8 1 18 -5 22 -6 3 -11 0 -11 -7 0 -10 -3 -9 -9 2
-11 17 -4 33 11 24 6 -4 6 2 -1 15 -14 25 -23 28 -14 4 4 -10 2 -14 -5 -9 -22
13 -21 -13 1 -41 13 -15 37 -50 53 -78 15 -27 32 -54 37 -60 29 -34 199 -368
231 -453 8 -20 26 -68 41 -107 124 -329 205 -671 246 -1035 16 -150 14 -527
-5 -690 -58 -497 -225 -1007 -461 -1415 -103 -178 -124 -212 -198 -317 -234
-333 -458 -564 -830 -853 -70 -54 -127 -104 -127 -112 0 -7 -7 -13 -15 -13
-21 0 -19 -18 8 -54 38 -50 39 -64 10 -83 -49 -33 -145 -132 -138 -142 3 -6 1
-11 -5 -11 -6 0 -8 -4 -5 -10 3 -5 1 -10 -4 -10 -6 0 -11 -7 -11 -15 0 -21
-12 -19 -45 7 -57 44 -55 14 -55 941 l0 854 -26 27 c-15 14 -33 26 -40 26 -18
0 -17 5 2 46 9 19 20 32 24 29 5 -3 6 3 4 12 -3 10 2 27 11 38 16 19 16 19 5
-3 -7 -13 -9 -26 -7 -29 3 -2 8 5 12 16 3 12 12 21 18 21 27 0 -20 20 -48 20
-42 0 -53 10 -57 48 l-3 33 -1572 5 c-1124 4 -1594 2 -1645 -6 -135 -20 -231
-90 -286 -208 l-27 -57 -3 -763 c-2 -476 1 -761 7 -758 10 7 9 -20 -2 -30 -12
-12 -8 -26 6 -18 7 4 9 3 4 -2 -5 -5 -14 -9 -20 -9 -7 0 -12 -5 -12 -12 0 -6
-3 -15 -8 -19 -15 -15 -6 -26 11 -13 16 13 16 13 -1 -7 -9 -11 -14 -24 -10
-29 5 -4 3 -5 -3 -2 -17 10 -46 -37 -32 -51 7 -7 6 -10 -5 -8 -9 1 -20 6 -24
11 -5 4 -1 5 7 0 8 -5 12 -5 8 0 -4 4 2 21 13 36 14 20 16 29 7 29 -10 0 -9 3
2 10 11 7 11 10 2 10 -7 0 -10 5 -7 10 4 6 11 7 17 4 7 -5 8 -2 3 6 -6 9 -4
11 6 5 8 -5 11 -5 7 0 -4 4 -3 14 2 21 19 21 19 52 2 66 -15 12 -16 11 -3 -4
13 -17 8 -23 -14 -18 -5 1 -4 -4 3 -11 15 -16 16 -33 2 -24 -6 4 -9 1 -8 -7 2
-7 -4 -12 -12 -10 -8 2 -12 0 -8 -4 4 -4 3 -13 -3 -21 -6 -7 -8 -13 -4 -13 4
0 1 -8 -6 -17 -10 -11 -10 -14 -1 -9 15 9 15 1 1 -25 -9 -17 -13 -18 -27 -7
-15 12 -16 11 -3 -4 7 -10 10 -18 5 -18 -5 -1 2 -10 15 -21 50 -42 11 -27 -68
26 -386 258 -766 634 -1032 1020 -389 563 -620 1194 -691 1885 -19 185 -16
639 6 825 58 497 186 926 412 1378 262 523 678 1018 1159 1379 107 80 265 187
330 225 45 26 103 30 143 9z"/>
<path d="M3704 18038 c-547 -559 -875 -1233 -981 -2016 -25 -183 -25 -715 0
-892 79 -555 238 -987 543 -1467 34 -53 67 -88 62 -65 -1 4 2 15 7 25 5 11 3
23 -5 30 -10 9 -11 7 -6 -10 4 -12 2 -24 -3 -28 -7 -4 -8 1 -4 11 4 12 3 15
-5 10 -8 -5 -10 -2 -6 9 4 10 2 15 -6 13 -8 -2 -18 7 -25 18 -6 12 -17 29 -24
38 -8 9 -11 19 -7 23 3 3 6 0 7 -8 0 -8 4 -4 10 9 5 14 13 20 21 16 8 -5 9 -1
5 12 -7 18 -6 18 9 -1 16 -20 16 -19 11 5 -6 24 -5 24 8 6 12 -16 12 -22 2
-28 -12 -7 -10 -9 14 -12 17 -2 47 -49 42 -64 -5 -11 -7 -11 -15 0 -7 10 -8 8
-4 -5 3 -10 2 -16 -4 -12 -6 4 -7 -1 -3 -11 4 -11 8 -13 11 -6 2 7 8 10 13 6
5 -3 8 -2 7 3 -2 4 2 8 7 8 6 0 9 -5 9 -12 -1 -7 2 -11 6 -10 3 1 41 -43 84
-98 127 -165 146 -187 146 -173 0 7 -7 92 -15 188 -22 260 -22 3777 0 4050
l15 185 84 172 c47 95 84 173 83 173 -1 0 -43 -42 -93 -92z m-256 -3325 l-3
-908 -55 85 c-223 348 -396 775 -465 1144 -63 341 -64 728 -4 1076 70 407 224
817 447 1194 l77 129 3 -907 c1 -498 1 -1314 0 -1813z"/>
<path d="M8141 18118 c-1 -4 8 -63 19 -130 65 -405 70 -577 70 -2413 0 -1836
-5 -2008 -70 -2413 -11 -67 -20 -125 -20 -128 0 -3 36 67 80 156 64 128 101
188 179 288 385 497 610 1034 696 1662 22 159 31 572 16 741 -52 575 -244
1122 -561 1594 -76 114 -165 232 -213 284 -17 20 -69 110 -114 201 -45 91 -82
162 -82 158z m400 -863 c210 -396 356 -857 415 -1310 24 -180 24 -572 0 -745
-67 -489 -215 -904 -482 -1355 -29 -49 -58 -97 -64 -105 -6 -10 -10 597 -10
1875 l0 1890 41 -70 c23 -38 68 -119 100 -180z"/>
<path d="M9044 17873 c2 -10 -2 -25 -8 -33 -9 -13 -9 -13 6 -2 16 12 18 35 6
48 -4 3 -5 -2 -4 -13z"/>
<path d="M9011 17856 c-9 -11 -9 -16 1 -22 7 -4 10 -4 6 1 -4 4 -3 14 3 22 6
7 9 13 6 13 -2 0 -10 -6 -16 -14z"/>
<path d="M8973 17845 c0 -8 4 -12 9 -9 5 3 6 10 3 15 -9 13 -12 11 -12 -6z"/>
<path d="M9056 17831 c-3 -5 2 -15 12 -22 15 -12 16 -12 5 2 -7 9 -10 19 -6
22 3 4 4 7 0 7 -3 0 -8 -4 -11 -9z"/>
<path d="M8914 17808 l-19 -23 23 19 c21 18 27 26 19 26 -2 0 -12 -10 -23 -22z"/>
<path d="M8959 17817 c6 -8 7 -18 3 -22 -4 -5 -1 -5 6 -1 10 6 10 11 1 22 -6
8 -14 14 -16 14 -3 0 0 -6 6 -13z"/>
<path d="M8994 17805 c0 -13 3 -22 7 -19 8 4 6 30 -2 38 -3 3 -5 -5 -5 -19z"/>
<path d="M8935 17801 c-3 -5 -1 -12 4 -16 5 -3 8 -14 6 -25 -2 -12 0 -18 5
-15 7 4 7 26 0 45 -1 3 -2 8 -1 13 1 10 -7 9 -14 -2z"/>
<path d="M9094 17791 c0 -11 -3 -20 -9 -20 -5 1 -9 5 -7 11 1 5 -2 7 -8 3 -8
-5 -8 -11 -1 -19 13 -16 4 -26 -22 -26 -25 0 -14 -13 13 -15 11 -1 16 3 13 9
-4 6 2 4 12 -4 17 -14 18 -13 13 8 -4 12 -3 20 1 17 9 -5 8 41 -1 50 -3 3 -5
-3 -4 -14z"/>
<path d="M9020 17796 c0 -2 8 -10 18 -17 15 -13 16 -12 3 4 -13 16 -21 21 -21
13z"/>
<path d="M9121 17785 c-2 -5 -4 -18 -6 -28 -7 -39 -14 -46 -39 -41 -21 4 -25
1 -23 -16 2 -11 7 -23 12 -27 4 -5 6 1 3 13 -3 12 0 21 7 21 7 0 10 -9 8 -21
-4 -19 -3 -18 10 3 8 13 16 20 19 15 3 -5 3 -2 1 6 -2 10 2 8 12 -4 13 -17 15
-17 15 -4 0 9 -4 20 -10 23 -5 3 -10 11 -10 16 0 6 7 4 15 -5 8 -8 15 -21 15
-30 0 -8 4 -17 10 -21 5 -3 7 -13 4 -23 -5 -14 -3 -14 10 2 14 17 14 21 1 36
-8 9 -15 21 -15 27 0 6 -6 13 -14 16 -8 3 -16 16 -19 29 -2 13 -5 19 -6 13z"/>
<path d="M8913 17765 c0 -8 4 -12 9 -9 5 3 6 10 3 15 -9 13 -12 11 -12 -6z"/>
<path d="M9010 17776 c0 -2 8 -10 18 -17 15 -13 16 -12 3 4 -13 16 -21 21 -21
13z"/>
<path d="M8840 17751 c17 -29 73 -87 61 -64 -6 12 -16 25 -22 28 -7 5 -5 13 5
24 14 15 14 18 2 18 -8 0 -14 -4 -13 -8 1 -4 -2 -6 -8 -5 -5 0 -9 6 -9 12 1 6
-5 11 -12 11 -9 0 -10 -5 -4 -16z"/>
<path d="M8996 17760 c20 -28 2 -69 -22 -49 -7 6 -11 16 -7 22 4 6 1 7 -6 3
-9 -6 -8 -12 4 -26 11 -12 13 -20 6 -25 -12 -7 -10 -31 7 -61 6 -12 9 -24 5
-27 -11 -12 19 -38 32 -27 6 5 16 6 20 2 5 -4 5 -1 1 6 -12 20 4 35 22 20 10
-7 14 -8 10 -4 -4 5 -3 15 4 23 6 7 8 16 4 20 -3 3 -6 0 -6 -8 0 -12 -2 -12
-10 1 -8 12 -10 12 -16 -3 -6 -17 -7 -17 -20 0 -13 17 -14 16 -10 -8 2 -14 0
-32 -5 -40 -9 -15 -10 -13 -13 41 0 14 -6 24 -11 23 -6 -1 -11 7 -11 17 0 10
5 16 10 13 5 -4 6 0 1 8 -5 8 -4 11 0 6 5 -4 16 0 26 9 17 15 18 15 13 -9 -2
-14 0 -29 6 -32 5 -3 10 -1 10 6 0 7 7 4 15 -7 11 -15 15 -16 15 -4 0 9 6 6
16 -10 14 -24 15 -24 11 -3 -3 13 0 26 5 30 7 4 8 1 4 -8 -4 -8 -1 -6 7 4 12
15 15 15 20 3 4 -9 1 -18 -5 -22 -7 -5 -8 -2 -3 6 5 9 4 11 -3 6 -7 -4 -12
-15 -12 -24 0 -14 3 -14 19 3 30 30 30 49 1 50 -14 0 -28 -4 -32 -9 -17 -25
-49 -11 -55 23 -1 8 -9 18 -18 23 -8 5 -13 13 -10 17 2 5 -3 15 -13 22 -15 12
-16 12 -6 -1z m24 -44 c0 -2 -8 -10 -17 -17 -16 -13 -17 -12 -4 4 13 16 21 21
21 13z"/>
<path d="M8895 17731 c-3 -5 -2 -12 3 -15 5 -3 9 1 9 9 0 17 -3 19 -12 6z"/>
<path d="M9000 17675 c-10 -12 -10 -19 -2 -27 7 -7 12 -8 12 -4 0 5 6 3 14 -3
11 -9 16 -9 22 0 4 7 3 9 -3 6 -14 -9 -37 19 -28 33 10 15 -1 12 -15 -5z"/>
<path d="M4295 16555 c-52 -18 -111 -82 -125 -134 -7 -29 -10 -285 -8 -863 3
-782 4 -825 22 -858 22 -41 46 -70 58 -70 5 0 8 6 6 13 -1 6 4 34 11 60 l14
49 24 -26 24 -26 1634 0 c1200 0 1641 3 1659 11 14 7 30 25 36 42 6 20 10 299
10 836 0 881 3 835 -58 860 l-28 12 20 44 c11 24 24 41 28 39 4 -3 8 -1 8 4 0
5 -17 12 -37 16 -21 3 -762 6 -1648 5 -1362 0 -1616 -2 -1650 -14z m3215 -935
l0 -770 -1585 0 -1585 0 0 770 0 770 1585 0 1585 0 0 -770z"/>
<path d="M3268 13732 c-6 -29 19 -66 46 -68 14 0 27 5 30 13 3 8 11 11 17 7 6
-3 3 5 -6 20 -10 15 -20 24 -23 21 -3 -2 -12 1 -20 7 -21 18 -41 18 -44 0z
m46 -30 c-5 -14 -2 -13 10 2 9 11 16 14 16 8 0 -7 0 -14 0 -17 0 -3 -3 -5 -6
-4 -4 0 -11 -5 -15 -13 -7 -10 -9 -10 -9 2 0 13 -1 13 -11 0 -8 -12 -9 -10 -4
8 4 12 3 22 -2 21 -20 -3 -25 2 -13 16 16 19 41 2 34 -23z"/>
<path d="M3286 13722 c-3 -5 1 -9 9 -9 8 0 12 4 9 9 -3 4 -7 8 -9 8 -2 0 -6
-4 -9 -8z"/>
<path d="M3366 13541 c-3 -5 2 -15 12 -22 15 -12 16 -12 5 2 -7 9 -10 19 -6
22 3 4 4 7 0 7 -3 0 -8 -4 -11 -9z"/>
<path d="M1974 13331 c-12 -14 -19 -32 -17 -39 6 -15 23 -6 19 11 -1 7 -1 9 1
4 9 -14 22 4 16 21 -3 9 -3 14 1 11 4 -4 9 -19 11 -35 2 -16 2 -23 -1 -16 -3
6 -10 9 -15 6 -6 -4 -6 -11 1 -19 8 -9 8 -15 0 -20 -6 -4 -7 -12 -1 -24 6 -11
6 -22 0 -32 -8 -12 -10 -12 -8 1 3 28 -1 41 -10 36 -5 -4 -8 -14 -6 -24 1 -9
-2 -23 -8 -30 -5 -7 -7 -15 -3 -19 3 -3 6 -1 6 6 0 7 4 10 9 7 12 -8 44 30 37
43 -4 5 -2 12 3 16 6 3 8 12 4 20 -3 9 0 21 5 28 7 8 7 18 2 27 -5 8 -7 17 -4
21 2 4 -2 11 -9 17 -8 7 -18 2 -33 -17z"/>
<path d="M1927 13334 c-3 -3 -3 -12 0 -20 3 -8 -2 -23 -10 -32 -11 -12 -13
-22 -7 -32 5 -8 10 -12 11 -7 1 4 3 12 4 17 1 6 3 16 4 23 1 8 4 8 11 -3 5 -8
5 -19 0 -25 -5 -6 -5 -17 0 -25 5 -8 3 -24 -5 -41 -8 -14 -11 -30 -7 -34 4 -5
1 -5 -7 0 -10 6 -12 4 -6 -5 6 -9 4 -11 -4 -5 -9 5 -10 10 -2 18 17 17 13 31
-4 17 -17 -14 -20 -40 -4 -40 5 0 7 -6 3 -12 -5 -8 -1 -7 10 2 19 15 39 55 40
81 1 9 9 26 19 37 12 13 15 22 8 27 -6 3 -11 -1 -11 -9 0 -24 -15 -26 -16 -3
-2 25 -12 68 -17 73 -2 2 -6 1 -10 -2z"/>
<path d="M1832 13268 c-7 -7 -18 -13 -24 -13 -7 0 -13 -12 -13 -27 -1 -15 -9
-38 -18 -51 -14 -22 -15 -27 -1 -37 12 -11 13 -10 8 4 -4 9 0 24 8 34 8 9 14
29 13 44 -1 15 2 25 6 22 4 -2 6 -13 4 -24 -2 -11 0 -22 6 -25 9 -6 12 3 11
40 -1 17 0 17 4 2 3 -9 10 -15 15 -12 5 4 5 13 -1 24 -5 10 -6 21 -3 25 3 3 4
6 2 6 -3 0 -11 -6 -17 -12z"/>
<path d="M1887 13261 c2 -2 -11 -19 -27 -38 -32 -36 -42 -65 -15 -43 8 7 13
16 10 20 -3 5 0 12 6 16 7 4 9 3 5 -4 -3 -6 -2 -13 4 -17 10 -6 14 6 11 35 -2
12 0 12 7 1 6 -7 12 -9 15 -4 4 6 1 16 -6 24 -7 8 -11 12 -10 10z"/>
<path d="M1909 13223 c-31 -36 -49 -72 -39 -78 5 -3 6 -13 3 -22 -4 -11 -3
-14 5 -9 7 4 10 17 6 30 -3 14 1 27 10 35 9 7 14 17 11 21 -3 5 0 12 6 16 7 4
9 3 5 -4 -3 -6 -2 -13 3 -16 12 -8 21 18 12 33 -5 8 -12 7 -22 -6z"/>
<path d="M1800 13176 c-7 -9 -10 -22 -7 -30 3 -7 1 -18 -4 -23 -6 -6 -4 -14 6
-23 10 -8 15 -9 16 -1 1 6 2 17 3 24 1 6 -2 17 -6 24 -6 7 -4 14 3 19 7 4 9 3
5 -4 -3 -6 -2 -13 4 -17 12 -7 13 15 1 33 -6 10 -10 10 -21 -2z"/>
<path d="M1854 13178 c-27 -41 -32 -56 -21 -67 6 -6 14 -11 18 -11 11 0 18 40
8 46 -6 3 -5 11 2 20 6 8 9 17 6 20 -3 3 -9 -1 -13 -8z m-7 -53 c0 -8 -4 -12
-9 -9 -5 3 -6 10 -3 15 9 13 12 11 12 -6z"/>
<path d="M2911 11326 c-8 -10 -9 -16 -1 -21 5 -3 10 -11 10 -16 0 -6 -6 -7
-12 -3 -9 5 -9 3 1 -9 16 -20 33 -13 24 10 -5 12 -3 14 8 8 8 -5 7 -1 -4 12
-9 11 -14 23 -10 26 3 4 4 7 1 7 -3 0 -11 -6 -17 -14z"/>
<path d="M26380 19344 c-19 -2 -87 -9 -150 -15 -215 -20 -473 -74 -685 -145
-606 -200 -1114 -580 -1503 -1124 -304 -427 -534 -1007 -637 -1607 -73 -431
-85 -1016 -29 -1458 98 -779 363 -1447 781 -1973 95 -120 290 -321 403 -417
451 -382 970 -604 1615 -691 163 -22 664 -26 825 -6 765 94 1346 366 1841 861
359 360 627 803 803 1324 162 481 236 957 236 1520 0 368 -24 639 -86 962
-214 1105 -814 1977 -1667 2420 -331 172 -657 273 -1057 326 -138 19 -596 34
-690 23z m446 -1715 c531 -74 930 -425 1149 -1014 173 -466 209 -1151 89
-1692 -170 -760 -613 -1235 -1234 -1323 -114 -17 -355 -13 -467 6 -392 66
-709 284 -931 640 -241 388 -355 913 -331 1534 28 713 280 1297 694 1608 145
108 373 203 570 236 99 17 357 20 461 5z"/>
<path d="M32970 19339 c-891 -70 -1611 -446 -2006 -1049 -237 -362 -347 -781
-331 -1260 11 -323 77 -602 203 -852 247 -490 716 -859 1377 -1082 164 -56
300 -90 632 -161 659 -141 927 -225 1115 -350 157 -105 240 -261 240 -455 0
-357 -286 -628 -735 -697 -123 -18 -453 -13 -590 11 -479 82 -870 288 -1225
645 -80 80 -163 167 -185 194 l-40 47 -210 -207 c-115 -115 -369 -364 -564
-555 l-354 -347 38 -47 c175 -213 441 -465 668 -632 489 -361 1044 -560 1767
-634 199 -20 744 -17 910 5 731 99 1324 373 1740 803 323 334 496 699 571
1199 21 134 18 498 -5 660 -43 309 -140 585 -281 800 -72 108 -102 146 -198
244 -153 155 -302 263 -513 369 -329 166 -615 254 -1284 397 -527 112 -720
167 -900 253 -259 125 -380 289 -380 517 0 165 53 290 174 411 122 121 280
195 492 230 142 23 396 14 559 -20 373 -78 751 -281 1020 -546 l80 -79 115
111 c63 61 312 307 552 546 l437 435 -56 61 c-455 492 -1056 825 -1742 967
-332 68 -752 95 -1091 68z"/>
<path d="M39755 19333 c-260 -21 -425 -45 -622 -93 -909 -219 -1625 -806
-2044 -1675 -204 -424 -327 -866 -384 -1376 -22 -198 -31 -665 -16 -870 65
-889 344 -1654 829 -2270 63 -80 276 -304 362 -381 366 -328 804 -561 1269
-677 264 -66 450 -90 757 -98 810 -20 1433 146 1944 516 189 137 418 356 596
571 131 159 334 431 334 447 0 5 -118 88 -263 185 -144 97 -466 314 -715 482
-249 168 -456 306 -460 306 -4 -1 -29 -37 -55 -81 -114 -189 -288 -390 -430
-495 -213 -158 -467 -234 -782 -235 -209 -1 -355 25 -535 94 -203 77 -397 210
-561 385 -213 227 -384 567 -463 922 -52 237 -61 332 -61 660 0 359 13 471 87
735 176 634 599 1082 1152 1222 81 20 134 26 271 30 336 10 593 -57 831 -218
154 -104 356 -324 461 -503 21 -36 41 -66 45 -66 6 0 1411 931 1427 946 11 10
-230 335 -356 480 -42 49 -132 144 -200 212 -519 511 -1089 770 -1843 837
-145 13 -462 18 -575 8z"/>
<path d="M16820 15615 l0 -3555 1898 0 c1629 0 1915 2 2026 15 685 80 1300
448 1649 985 275 424 356 968 222 1484 -102 392 -347 727 -706 963 -110 72
-329 180 -437 216 -40 14 -75 27 -78 30 -3 3 32 23 78 44 312 148 597 425 738
718 121 254 167 514 149 854 -24 477 -187 881 -473 1179 -119 123 -199 189
-333 274 -254 160 -563 265 -958 325 -99 15 -289 17 -1942 20 l-1833 4 0
-3556z m3253 2057 c233 -65 399 -231 458 -459 25 -98 27 -261 5 -348 -29 -110
-84 -203 -171 -291 -93 -94 -170 -140 -300 -181 l-90 -27 -705 -1 -705 0 -3
655 c-1 360 0 661 3 668 4 11 137 13 717 10 696 -4 715 -4 791 -26z m-45
-2743 c381 -41 626 -198 719 -460 35 -96 43 -292 19 -409 -51 -241 -234 -416
-508 -485 -162 -40 -300 -46 -1023 -43 l-670 3 -3 690 c-1 380 0 696 3 703 6
16 1315 18 1463 1z"/>
<path d="M43570 15615 l0 -3555 930 0 930 0 2 1403 3 1402 1083 3 1082 2 0
-1405 0 -1405 940 0 940 0 0 3555 0 3555 -940 0 -940 0 0 -1310 0 -1310 -1082
2 -1083 3 -3 1308 -2 1307 -930 0 -930 0 0 -3555z"/>
</g>
</svg>
